<?xml version="1.0" encoding="iso-8859-1"?>
<!-- Generator: Adobe Illustrator 19.0.0, SVG Export Plug-In . SVG Version: 6.00 Build 0)  -->
<svg xmlns="http://www.w3.org/2000/svg" xmlns:xlink="http://www.w3.org/1999/xlink" version="1.1" id="Layer_1" x="0px" y="0px" viewBox="0 0 512 512" style="enable-background:new 0 0 512 512;" xml:space="preserve" width="512px" height="512px">
<g>
	<g>
		<g>
			<rect x="200.93" y="39.854" transform="matrix(-0.7071 -0.7071 0.7071 -0.7071 300.404 281.1486)" width="15" height="77.009" fill="#FFFFFF"/>
			
				<rect x="296.063" y="39.846" transform="matrix(-0.7071 -0.7071 0.7071 -0.7071 462.8124 348.4041)" width="15" height="77.009" fill="#FFFFFF"/>
			<path d="M445.345,386.066V317.4H277.78l-14.28-14.28v-58.832h51.548h30.188v-15h-30.188v-26.503h86.219v-51.148V0H110.732     v151.637v51.148h86.219v26.503h-30.188v15h30.188H248.5v58.832l-14.28,14.28H66.655v68.665H0v68.773v37.081h41.715V497H30.98v15     h10.734h64.88h10.734v-15h-10.734v-5.08h41.715v-37.081v-68.773H81.655V332.4H234.22l14.28,14.28v39.385h-66.658v68.773v37.081     h41.714V497h-10.734v15h10.734h64.88h10.734v-15h-10.734v-5.08h41.714v-37.081v-68.773H263.5v-39.385l14.28-14.28h152.565v53.665     H363.69v68.773v37.081h41.715V497h-10.734v15h10.734h64.88h10.734v-15h-10.734v-5.08H512v-37.081v-68.773H445.345z M91.595,497     h-34.88v-5.08h34.88V497z M133.31,476.92h-26.715h-64.88H15v-7.081h118.31V476.92z M133.31,401.066v53.773H15v-53.773H133.31z      M125.732,15h260.535v136.637H125.732V15z M125.732,187.785v-21.148h260.535v21.148h-71.219H196.952H125.732z M211.952,229.288     v-26.503h88.097v26.503H211.952z M273.437,497h-34.88v-5.08h34.88V497z M315.152,476.92h-0.001h-26.714h-64.88h-26.714v-7.081     h118.309V476.92z M315.151,401.066v53.773H196.842v-53.773H315.151z M256,332.968l-8.067-8.067l8.067-8.067l8.067,8.067     L256,332.968z M455.285,497h-34.88v-5.08h34.88V497z M497,476.92h-26.715h-64.88H378.69v-7.081H497V476.92z M497,454.839H378.69     v-53.773H497V454.839z" fill="#FFFFFF"/>
		</g>
	</g>
</g>
<g>
</g>
<g>
</g>
<g>
</g>
<g>
</g>
<g>
</g>
<g>
</g>
<g>
</g>
<g>
</g>
<g>
</g>
<g>
</g>
<g>
</g>
<g>
</g>
<g>
</g>
<g>
</g>
<g>
</g>
</svg>
